<?xml version="1.0" encoding="utf-8"?>
<!-- Generator: Adobe Illustrator 25.1.0, SVG Export Plug-In . SVG Version: 6.00 Build 0)  -->
<svg version="1.1" id="Calque_1" xmlns="http://www.w3.org/2000/svg" xmlns:xlink="http://www.w3.org/1999/xlink" x="0px" y="0px"
	 viewBox="0 0 4000 4000" style="enable-background:new 0 0 4000 4000;" xml:space="preserve">
<style type="text/css">
	.st0{fill:#006633;}
	.st1{fill:#008D36;}
</style>
<rect class="st0" width="160" height="160"/>
<rect x="160" class="st1" width="160" height="160"/>
<rect x="320" class="st0" width="160" height="160"/>
<rect x="480" class="st1" width="160" height="160"/>
<rect x="640" class="st0" width="160" height="160"/>
<rect x="800" class="st1" width="160" height="160"/>
<rect x="960" class="st0" width="160" height="160"/>
<rect x="1120" class="st1" width="160" height="160"/>
<rect x="1280" class="st0" width="160" height="160"/>
<rect x="1440" class="st1" width="160" height="160"/>
<rect x="1600" class="st0" width="160" height="160"/>
<rect x="1760" class="st1" width="160" height="160"/>
<rect x="1920" class="st0" width="160" height="160"/>
<rect x="2080" class="st1" width="160" height="160"/>
<rect x="2240" class="st0" width="160" height="160"/>
<rect x="2400" class="st1" width="160" height="160"/>
<rect x="2560" class="st0" width="160" height="160"/>
<rect x="2720" class="st1" width="160" height="160"/>
<rect x="2880" class="st0" width="160" height="160"/>
<rect x="3040" class="st1" width="160" height="160"/>
<rect x="3200" class="st0" width="160" height="160"/>
<rect x="3360" class="st1" width="160" height="160"/>
<rect x="3520" class="st0" width="160" height="160"/>
<rect x="3680" class="st1" width="160" height="160"/>
<rect x="3840" class="st0" width="160" height="160"/>
<rect y="160" class="st1" width="160" height="160"/>
<rect x="160" y="160" class="st0" width="160" height="160"/>
<rect x="320" y="160" class="st1" width="160" height="160"/>
<rect x="480" y="160" class="st0" width="160" height="160"/>
<rect x="640" y="160" class="st1" width="160" height="160"/>
<rect x="800" y="160" class="st0" width="160" height="160"/>
<rect x="960" y="160" class="st1" width="160" height="160"/>
<rect x="1120" y="160" class="st0" width="160" height="160"/>
<rect x="1280" y="160" class="st1" width="160" height="160"/>
<rect x="1440" y="160" class="st0" width="160" height="160"/>
<rect x="1600" y="160" class="st1" width="160" height="160"/>
<rect x="1760" y="160" class="st0" width="160" height="160"/>
<rect x="1920" y="160" class="st1" width="160" height="160"/>
<rect x="2080" y="160" class="st0" width="160" height="160"/>
<rect x="2240" y="160" class="st1" width="160" height="160"/>
<rect x="2400" y="160" class="st0" width="160" height="160"/>
<rect x="2560" y="160" class="st1" width="160" height="160"/>
<rect x="2720" y="160" class="st0" width="160" height="160"/>
<rect x="2880" y="160" class="st1" width="160" height="160"/>
<rect x="3040" y="160" class="st0" width="160" height="160"/>
<rect x="3200" y="160" class="st1" width="160" height="160"/>
<rect x="3360" y="160" class="st0" width="160" height="160"/>
<rect x="3520" y="160" class="st1" width="160" height="160"/>
<rect x="3680" y="160" class="st0" width="160" height="160"/>
<rect x="3840" y="160" class="st1" width="160" height="160"/>
<rect x="0" y="320" class="st0" width="160" height="160"/>
<rect x="160" y="320" class="st1" width="160" height="160"/>
<rect x="320" y="320" class="st0" width="160" height="160"/>
<rect x="480" y="320" class="st1" width="160" height="160"/>
<rect x="640" y="320" class="st0" width="160" height="160"/>
<rect x="800" y="320" class="st1" width="160" height="160"/>
<rect x="960" y="320" class="st0" width="160" height="160"/>
<rect x="1120" y="320" class="st1" width="160" height="160"/>
<rect x="1280" y="320" class="st0" width="160" height="160"/>
<rect x="1440" y="320" class="st1" width="160" height="160"/>
<rect x="1600" y="320" class="st0" width="160" height="160"/>
<rect x="1760" y="320" class="st1" width="160" height="160"/>
<rect x="1920" y="320" class="st0" width="160" height="160"/>
<rect x="2080" y="320" class="st1" width="160" height="160"/>
<rect x="2240" y="320" class="st0" width="160" height="160"/>
<rect x="2400" y="320" class="st1" width="160" height="160"/>
<rect x="2560" y="320" class="st0" width="160" height="160"/>
<rect x="2720" y="320" class="st1" width="160" height="160"/>
<rect x="2880" y="320" class="st0" width="160" height="160"/>
<rect x="3040" y="320" class="st1" width="160" height="160"/>
<rect x="3200" y="320" class="st0" width="160" height="160"/>
<rect x="3360" y="320" class="st1" width="160" height="160"/>
<rect x="3520" y="320" class="st0" width="160" height="160"/>
<rect x="3680" y="320" class="st1" width="160" height="160"/>
<rect x="3840" y="320" class="st0" width="160" height="160"/>
<rect x="0" y="480" class="st1" width="160" height="160"/>
<rect x="160" y="480" class="st0" width="160" height="160"/>
<rect x="320" y="480" class="st1" width="160" height="160"/>
<rect x="480" y="480" class="st0" width="160" height="160"/>
<rect x="640" y="480" class="st1" width="160" height="160"/>
<rect x="800" y="480" class="st0" width="160" height="160"/>
<rect x="960" y="480" class="st1" width="160" height="160"/>
<rect x="1120" y="480" class="st0" width="160" height="160"/>
<rect x="1280" y="480" class="st1" width="160" height="160"/>
<rect x="1440" y="480" class="st0" width="160" height="160"/>
<rect x="1600" y="480" class="st1" width="160" height="160"/>
<rect x="1760" y="480" class="st0" width="160" height="160"/>
<rect x="1920" y="480" class="st1" width="160" height="160"/>
<rect x="2080" y="480" class="st0" width="160" height="160"/>
<rect x="2240" y="480" class="st1" width="160" height="160"/>
<rect x="2400" y="480" class="st0" width="160" height="160"/>
<rect x="2560" y="480" class="st1" width="160" height="160"/>
<rect x="2720" y="480" class="st0" width="160" height="160"/>
<rect x="2880" y="480" class="st1" width="160" height="160"/>
<rect x="3040" y="480" class="st0" width="160" height="160"/>
<rect x="3200" y="480" class="st1" width="160" height="160"/>
<rect x="3360" y="480" class="st0" width="160" height="160"/>
<rect x="3520" y="480" class="st1" width="160" height="160"/>
<rect x="3680" y="480" class="st0" width="160" height="160"/>
<rect x="3840" y="480" class="st1" width="160" height="160"/>
<rect y="640" class="st0" width="160" height="160"/>
<rect x="160" y="640" class="st1" width="160" height="160"/>
<rect x="320" y="640" class="st0" width="160" height="160"/>
<rect x="480" y="640" class="st1" width="160" height="160"/>
<rect x="640" y="640" class="st0" width="160" height="160"/>
<rect x="800" y="640" class="st1" width="160" height="160"/>
<rect x="960" y="640" class="st0" width="160" height="160"/>
<rect x="1120" y="640" class="st1" width="160" height="160"/>
<rect x="1280" y="640" class="st0" width="160" height="160"/>
<rect x="1440" y="640" class="st1" width="160" height="160"/>
<rect x="1600" y="640" class="st0" width="160" height="160"/>
<rect x="1760" y="640" class="st1" width="160" height="160"/>
<rect x="1920" y="640" class="st0" width="160" height="160"/>
<rect x="2080" y="640" class="st1" width="160" height="160"/>
<rect x="2240" y="640" class="st0" width="160" height="160"/>
<rect x="2400" y="640" class="st1" width="160" height="160"/>
<rect x="2560" y="640" class="st0" width="160" height="160"/>
<rect x="2720" y="640" class="st1" width="160" height="160"/>
<rect x="2880" y="640" class="st0" width="160" height="160"/>
<rect x="3040" y="640" class="st1" width="160" height="160"/>
<rect x="3200" y="640" class="st0" width="160" height="160"/>
<rect x="3360" y="640" class="st1" width="160" height="160"/>
<rect x="3520" y="640" class="st0" width="160" height="160"/>
<rect x="3680" y="640" class="st1" width="160" height="160"/>
<rect x="3840" y="640" class="st0" width="160" height="160"/>
<rect y="800" class="st1" width="160" height="160"/>
<rect x="160" y="800" class="st0" width="160" height="160"/>
<rect x="320" y="800" class="st1" width="160" height="160"/>
<rect x="480" y="800" class="st0" width="160" height="160"/>
<rect x="640" y="800" class="st1" width="160" height="160"/>
<rect x="800" y="800" class="st0" width="160" height="160"/>
<rect x="960" y="800" class="st1" width="160" height="160"/>
<rect x="1120" y="800" class="st0" width="160" height="160"/>
<rect x="1280" y="800" class="st1" width="160" height="160"/>
<rect x="1440" y="800" class="st0" width="160" height="160"/>
<rect x="1600" y="800" class="st1" width="160" height="160"/>
<rect x="1760" y="800" class="st0" width="160" height="160"/>
<rect x="1920" y="800" class="st1" width="160" height="160"/>
<rect x="2080" y="800" class="st0" width="160" height="160"/>
<rect x="2240" y="800" class="st1" width="160" height="160"/>
<rect x="2400" y="800" class="st0" width="160" height="160"/>
<rect x="2560" y="800" class="st1" width="160" height="160"/>
<rect x="2720" y="800" class="st0" width="160" height="160"/>
<rect x="2880" y="800" class="st1" width="160" height="160"/>
<rect x="3040" y="800" class="st0" width="160" height="160"/>
<rect x="3200" y="800" class="st1" width="160" height="160"/>
<rect x="3360" y="800" class="st0" width="160" height="160"/>
<rect x="3520" y="800" class="st1" width="160" height="160"/>
<rect x="3680" y="800" class="st0" width="160" height="160"/>
<rect x="3840" y="800" class="st1" width="160" height="160"/>
<rect x="0" y="960" class="st0" width="160" height="160"/>
<rect x="160" y="960" class="st1" width="160" height="160"/>
<rect x="320" y="960" class="st0" width="160" height="160"/>
<rect x="480" y="960" class="st1" width="160" height="160"/>
<rect x="640" y="960" class="st0" width="160" height="160"/>
<rect x="800" y="960" class="st1" width="160" height="160"/>
<rect x="960" y="960" class="st0" width="160" height="160"/>
<rect x="1120" y="960" class="st1" width="160" height="160"/>
<rect x="1280" y="960" class="st0" width="160" height="160"/>
<rect x="1440" y="960" class="st1" width="160" height="160"/>
<rect x="1600" y="960" class="st0" width="160" height="160"/>
<rect x="1760" y="960" class="st1" width="160" height="160"/>
<rect x="1920" y="960" class="st0" width="160" height="160"/>
<rect x="2080" y="960" class="st1" width="160" height="160"/>
<rect x="2240" y="960" class="st0" width="160" height="160"/>
<rect x="2400" y="960" class="st1" width="160" height="160"/>
<rect x="2560" y="960" class="st0" width="160" height="160"/>
<rect x="2720" y="960" class="st1" width="160" height="160"/>
<rect x="2880" y="960" class="st0" width="160" height="160"/>
<rect x="3040" y="960" class="st1" width="160" height="160"/>
<rect x="3200" y="960" class="st0" width="160" height="160"/>
<rect x="3360" y="960" class="st1" width="160" height="160"/>
<rect x="3520" y="960" class="st0" width="160" height="160"/>
<rect x="3680" y="960" class="st1" width="160" height="160"/>
<rect x="3840" y="960" class="st0" width="160" height="160"/>
<rect x="0" y="1120" class="st1" width="160" height="160"/>
<rect x="160" y="1120" class="st0" width="160" height="160"/>
<rect x="320" y="1120" class="st1" width="160" height="160"/>
<rect x="480" y="1120" class="st0" width="160" height="160"/>
<rect x="640" y="1120" class="st1" width="160" height="160"/>
<rect x="800" y="1120" class="st0" width="160" height="160"/>
<rect x="960" y="1120" class="st1" width="160" height="160"/>
<rect x="1120" y="1120" class="st0" width="160" height="160"/>
<rect x="1280" y="1120" class="st1" width="160" height="160"/>
<rect x="1440" y="1120" class="st0" width="160" height="160"/>
<rect x="1600" y="1120" class="st1" width="160" height="160"/>
<rect x="1760" y="1120" class="st0" width="160" height="160"/>
<rect x="1920" y="1120" class="st1" width="160" height="160"/>
<rect x="2080" y="1120" class="st0" width="160" height="160"/>
<rect x="2240" y="1120" class="st1" width="160" height="160"/>
<rect x="2400" y="1120" class="st0" width="160" height="160"/>
<rect x="2560" y="1120" class="st1" width="160" height="160"/>
<rect x="2720" y="1120" class="st0" width="160" height="160"/>
<rect x="2880" y="1120" class="st1" width="160" height="160"/>
<rect x="3040" y="1120" class="st0" width="160" height="160"/>
<rect x="3200" y="1120" class="st1" width="160" height="160"/>
<rect x="3360" y="1120" class="st0" width="160" height="160"/>
<rect x="3520" y="1120" class="st1" width="160" height="160"/>
<rect x="3680" y="1120" class="st0" width="160" height="160"/>
<rect x="3840" y="1120" class="st1" width="160" height="160"/>
<rect x="0" y="1280" class="st0" width="160" height="160"/>
<rect x="160" y="1280" class="st1" width="160" height="160"/>
<rect x="320" y="1280" class="st0" width="160" height="160"/>
<rect x="480" y="1280" class="st1" width="160" height="160"/>
<rect x="640" y="1280" class="st0" width="160" height="160"/>
<rect x="800" y="1280" class="st1" width="160" height="160"/>
<rect x="960" y="1280" class="st0" width="160" height="160"/>
<rect x="1120" y="1280" class="st1" width="160" height="160"/>
<rect x="1280" y="1280" class="st0" width="160" height="160"/>
<rect x="1440" y="1280" class="st1" width="160" height="160"/>
<rect x="1600" y="1280" class="st0" width="160" height="160"/>
<rect x="1760" y="1280" class="st1" width="160" height="160"/>
<rect x="1920" y="1280" class="st0" width="160" height="160"/>
<rect x="2080" y="1280" class="st1" width="160" height="160"/>
<rect x="2240" y="1280" class="st0" width="160" height="160"/>
<rect x="2400" y="1280" class="st1" width="160" height="160"/>
<rect x="2560" y="1280" class="st0" width="160" height="160"/>
<rect x="2720" y="1280" class="st1" width="160" height="160"/>
<rect x="2880" y="1280" class="st0" width="160" height="160"/>
<rect x="3040" y="1280" class="st1" width="160" height="160"/>
<rect x="3200" y="1280" class="st0" width="160" height="160"/>
<rect x="3360" y="1280" class="st1" width="160" height="160"/>
<rect x="3520" y="1280" class="st0" width="160" height="160"/>
<rect x="3680" y="1280" class="st1" width="160" height="160"/>
<rect x="3840" y="1280" class="st0" width="160" height="160"/>
<rect x="0" y="1440" class="st1" width="160" height="160"/>
<rect x="160" y="1440" class="st0" width="160" height="160"/>
<rect x="320" y="1440" class="st1" width="160" height="160"/>
<rect x="480" y="1440" class="st0" width="160" height="160"/>
<rect x="640" y="1440" class="st1" width="160" height="160"/>
<rect x="800" y="1440" class="st0" width="160" height="160"/>
<rect x="960" y="1440" class="st1" width="160" height="160"/>
<rect x="1120" y="1440" class="st0" width="160" height="160"/>
<rect x="1280" y="1440" class="st1" width="160" height="160"/>
<rect x="1440" y="1440" class="st0" width="160" height="160"/>
<rect x="1600" y="1440" class="st1" width="160" height="160"/>
<rect x="1760" y="1440" class="st0" width="160" height="160"/>
<rect x="1920" y="1440" class="st1" width="160" height="160"/>
<rect x="2080" y="1440" class="st0" width="160" height="160"/>
<rect x="2240" y="1440" class="st1" width="160" height="160"/>
<rect x="2400" y="1440" class="st0" width="160" height="160"/>
<rect x="2560" y="1440" class="st1" width="160" height="160"/>
<rect x="2720" y="1440" class="st0" width="160" height="160"/>
<rect x="2880" y="1440" class="st1" width="160" height="160"/>
<rect x="3040" y="1440" class="st0" width="160" height="160"/>
<rect x="3200" y="1440" class="st1" width="160" height="160"/>
<rect x="3360" y="1440" class="st0" width="160" height="160"/>
<rect x="3520" y="1440" class="st1" width="160" height="160"/>
<rect x="3680" y="1440" class="st0" width="160" height="160"/>
<rect x="3840" y="1440" class="st1" width="160" height="160"/>
<rect x="0" y="1600" class="st0" width="160" height="160"/>
<rect x="160" y="1600" class="st1" width="160" height="160"/>
<rect x="320" y="1600" class="st0" width="160" height="160"/>
<rect x="480" y="1600" class="st1" width="160" height="160"/>
<rect x="640" y="1600" class="st0" width="160" height="160"/>
<rect x="800" y="1600" class="st1" width="160" height="160"/>
<rect x="960" y="1600" class="st0" width="160" height="160"/>
<rect x="1120" y="1600" class="st1" width="160" height="160"/>
<rect x="1280" y="1600" class="st0" width="160" height="160"/>
<rect x="1440" y="1600" class="st1" width="160" height="160"/>
<rect x="1600" y="1600" class="st0" width="160" height="160"/>
<rect x="1760" y="1600" class="st1" width="160" height="160"/>
<rect x="1920" y="1600" class="st0" width="160" height="160"/>
<rect x="2080" y="1600" class="st1" width="160" height="160"/>
<rect x="2240" y="1600" class="st0" width="160" height="160"/>
<rect x="2400" y="1600" class="st1" width="160" height="160"/>
<rect x="2560" y="1600" class="st0" width="160" height="160"/>
<rect x="2720" y="1600" class="st1" width="160" height="160"/>
<rect x="2880" y="1600" class="st0" width="160" height="160"/>
<rect x="3040" y="1600" class="st1" width="160" height="160"/>
<rect x="3200" y="1600" class="st0" width="160" height="160"/>
<rect x="3360" y="1600" class="st1" width="160" height="160"/>
<rect x="3520" y="1600" class="st0" width="160" height="160"/>
<rect x="3680" y="1600" class="st1" width="160" height="160"/>
<rect x="3840" y="1600" class="st0" width="160" height="160"/>
<rect x="0" y="1760" class="st1" width="160" height="160"/>
<rect x="160" y="1760" class="st0" width="160" height="160"/>
<rect x="320" y="1760" class="st1" width="160" height="160"/>
<rect x="480" y="1760" class="st0" width="160" height="160"/>
<rect x="640" y="1760" class="st1" width="160" height="160"/>
<rect x="800" y="1760" class="st0" width="160" height="160"/>
<rect x="960" y="1760" class="st1" width="160" height="160"/>
<rect x="1120" y="1760" class="st0" width="160" height="160"/>
<rect x="1280" y="1760" class="st1" width="160" height="160"/>
<rect x="1440" y="1760" class="st0" width="160" height="160"/>
<rect x="1600" y="1760" class="st1" width="160" height="160"/>
<rect x="1760" y="1760" class="st0" width="160" height="160"/>
<rect x="1920" y="1760" class="st1" width="160" height="160"/>
<rect x="2080" y="1760" class="st0" width="160" height="160"/>
<rect x="2240" y="1760" class="st1" width="160" height="160"/>
<rect x="2400" y="1760" class="st0" width="160" height="160"/>
<rect x="2560" y="1760" class="st1" width="160" height="160"/>
<rect x="2720" y="1760" class="st0" width="160" height="160"/>
<rect x="2880" y="1760" class="st1" width="160" height="160"/>
<rect x="3040" y="1760" class="st0" width="160" height="160"/>
<rect x="3200" y="1760" class="st1" width="160" height="160"/>
<rect x="3360" y="1760" class="st0" width="160" height="160"/>
<rect x="3520" y="1760" class="st1" width="160" height="160"/>
<rect x="3680" y="1760" class="st0" width="160" height="160"/>
<rect x="3840" y="1760" class="st1" width="160" height="160"/>
<rect x="0" y="1920" class="st0" width="160" height="160"/>
<rect x="160" y="1920" class="st1" width="160" height="160"/>
<rect x="320" y="1920" class="st0" width="160" height="160"/>
<rect x="480" y="1920" class="st1" width="160" height="160"/>
<rect x="640" y="1920" class="st0" width="160" height="160"/>
<rect x="800" y="1920" class="st1" width="160" height="160"/>
<rect x="960" y="1920" class="st0" width="160" height="160"/>
<rect x="1120" y="1920" class="st1" width="160" height="160"/>
<rect x="1280" y="1920" class="st0" width="160" height="160"/>
<rect x="1440" y="1920" class="st1" width="160" height="160"/>
<rect x="1600" y="1920" class="st0" width="160" height="160"/>
<rect x="1760" y="1920" class="st1" width="160" height="160"/>
<rect x="1920" y="1920" class="st0" width="160" height="160"/>
<rect x="2080" y="1920" class="st1" width="160" height="160"/>
<rect x="2240" y="1920" class="st0" width="160" height="160"/>
<rect x="2400" y="1920" class="st1" width="160" height="160"/>
<rect x="2560" y="1920" class="st0" width="160" height="160"/>
<rect x="2720" y="1920" class="st1" width="160" height="160"/>
<rect x="2880" y="1920" class="st0" width="160" height="160"/>
<rect x="3040" y="1920" class="st1" width="160" height="160"/>
<rect x="3200" y="1920" class="st0" width="160" height="160"/>
<rect x="3360" y="1920" class="st1" width="160" height="160"/>
<rect x="3520" y="1920" class="st0" width="160" height="160"/>
<rect x="3680" y="1920" class="st1" width="160" height="160"/>
<rect x="3840" y="1920" class="st0" width="160" height="160"/>
<rect x="0" y="2080" class="st1" width="160" height="160"/>
<rect x="160" y="2080" class="st0" width="160" height="160"/>
<rect x="320" y="2080" class="st1" width="160" height="160"/>
<rect x="480" y="2080" class="st0" width="160" height="160"/>
<rect x="640" y="2080" class="st1" width="160" height="160"/>
<rect x="800" y="2080" class="st0" width="160" height="160"/>
<rect x="960" y="2080" class="st1" width="160" height="160"/>
<rect x="1120" y="2080" class="st0" width="160" height="160"/>
<rect x="1280" y="2080" class="st1" width="160" height="160"/>
<rect x="1440" y="2080" class="st0" width="160" height="160"/>
<rect x="1600" y="2080" class="st1" width="160" height="160"/>
<rect x="1760" y="2080" class="st0" width="160" height="160"/>
<rect x="1920" y="2080" class="st1" width="160" height="160"/>
<rect x="2080" y="2080" class="st0" width="160" height="160"/>
<rect x="2240" y="2080" class="st1" width="160" height="160"/>
<rect x="2400" y="2080" class="st0" width="160" height="160"/>
<rect x="2560" y="2080" class="st1" width="160" height="160"/>
<rect x="2720" y="2080" class="st0" width="160" height="160"/>
<rect x="2880" y="2080" class="st1" width="160" height="160"/>
<rect x="3040" y="2080" class="st0" width="160" height="160"/>
<rect x="3200" y="2080" class="st1" width="160" height="160"/>
<rect x="3360" y="2080" class="st0" width="160" height="160"/>
<rect x="3520" y="2080" class="st1" width="160" height="160"/>
<rect x="3680" y="2080" class="st0" width="160" height="160"/>
<rect x="3840" y="2080" class="st1" width="160" height="160"/>
<rect x="0" y="2240" class="st0" width="160" height="160"/>
<rect x="160" y="2240" class="st1" width="160" height="160"/>
<rect x="320" y="2240" class="st0" width="160" height="160"/>
<rect x="480" y="2240" class="st1" width="160" height="160"/>
<rect x="640" y="2240" class="st0" width="160" height="160"/>
<rect x="800" y="2240" class="st1" width="160" height="160"/>
<rect x="960" y="2240" class="st0" width="160" height="160"/>
<rect x="1120" y="2240" class="st1" width="160" height="160"/>
<rect x="1280" y="2240" class="st0" width="160" height="160"/>
<rect x="1440" y="2240" class="st1" width="160" height="160"/>
<rect x="1600" y="2240" class="st0" width="160" height="160"/>
<rect x="1760" y="2240" class="st1" width="160" height="160"/>
<rect x="1920" y="2240" class="st0" width="160" height="160"/>
<rect x="2080" y="2240" class="st1" width="160" height="160"/>
<rect x="2240" y="2240" class="st0" width="160" height="160"/>
<rect x="2400" y="2240" class="st1" width="160" height="160"/>
<rect x="2560" y="2240" class="st0" width="160" height="160"/>
<rect x="2720" y="2240" class="st1" width="160" height="160"/>
<rect x="2880" y="2240" class="st0" width="160" height="160"/>
<rect x="3040" y="2240" class="st1" width="160" height="160"/>
<rect x="3200" y="2240" class="st0" width="160" height="160"/>
<rect x="3360" y="2240" class="st1" width="160" height="160"/>
<rect x="3520" y="2240" class="st0" width="160" height="160"/>
<rect x="3680" y="2240" class="st1" width="160" height="160"/>
<rect x="3840" y="2240" class="st0" width="160" height="160"/>
<rect x="0" y="2400" class="st1" width="160" height="160"/>
<rect x="160" y="2400" class="st0" width="160" height="160"/>
<rect x="320" y="2400" class="st1" width="160" height="160"/>
<rect x="480" y="2400" class="st0" width="160" height="160"/>
<rect x="640" y="2400" class="st1" width="160" height="160"/>
<rect x="800" y="2400" class="st0" width="160" height="160"/>
<rect x="960" y="2400" class="st1" width="160" height="160"/>
<rect x="1120" y="2400" class="st0" width="160" height="160"/>
<rect x="1280" y="2400" class="st1" width="160" height="160"/>
<rect x="1440" y="2400" class="st0" width="160" height="160"/>
<rect x="1600" y="2400" class="st1" width="160" height="160"/>
<rect x="1760" y="2400" class="st0" width="160" height="160"/>
<rect x="1920" y="2400" class="st1" width="160" height="160"/>
<rect x="2080" y="2400" class="st0" width="160" height="160"/>
<rect x="2240" y="2400" class="st1" width="160" height="160"/>
<rect x="2400" y="2400" class="st0" width="160" height="160"/>
<rect x="2560" y="2400" class="st1" width="160" height="160"/>
<rect x="2720" y="2400" class="st0" width="160" height="160"/>
<rect x="2880" y="2400" class="st1" width="160" height="160"/>
<rect x="3040" y="2400" class="st0" width="160" height="160"/>
<rect x="3200" y="2400" class="st1" width="160" height="160"/>
<rect x="3360" y="2400" class="st0" width="160" height="160"/>
<rect x="3520" y="2400" class="st1" width="160" height="160"/>
<rect x="3680" y="2400" class="st0" width="160" height="160"/>
<rect x="3840" y="2400" class="st1" width="160" height="160"/>
<rect y="2560" class="st0" width="160" height="160"/>
<rect x="160" y="2560" class="st1" width="160" height="160"/>
<rect x="320" y="2560" class="st0" width="160" height="160"/>
<rect x="480" y="2560" class="st1" width="160" height="160"/>
<rect x="640" y="2560" class="st0" width="160" height="160"/>
<rect x="800" y="2560" class="st1" width="160" height="160"/>
<rect x="960" y="2560" class="st0" width="160" height="160"/>
<rect x="1120" y="2560" class="st1" width="160" height="160"/>
<rect x="1280" y="2560" class="st0" width="160" height="160"/>
<rect x="1440" y="2560" class="st1" width="160" height="160"/>
<rect x="1600" y="2560" class="st0" width="160" height="160"/>
<rect x="1760" y="2560" class="st1" width="160" height="160"/>
<rect x="1920" y="2560" class="st0" width="160" height="160"/>
<rect x="2080" y="2560" class="st1" width="160" height="160"/>
<rect x="2240" y="2560" class="st0" width="160" height="160"/>
<rect x="2400" y="2560" class="st1" width="160" height="160"/>
<rect x="2560" y="2560" class="st0" width="160" height="160"/>
<rect x="2720" y="2560" class="st1" width="160" height="160"/>
<rect x="2880" y="2560" class="st0" width="160" height="160"/>
<rect x="3040" y="2560" class="st1" width="160" height="160"/>
<rect x="3200" y="2560" class="st0" width="160" height="160"/>
<rect x="3360" y="2560" class="st1" width="160" height="160"/>
<rect x="3520" y="2560" class="st0" width="160" height="160"/>
<rect x="3680" y="2560" class="st1" width="160" height="160"/>
<rect x="3840" y="2560" class="st0" width="160" height="160"/>
<rect y="2720" class="st1" width="160" height="160"/>
<rect x="160" y="2720" class="st0" width="160" height="160"/>
<rect x="320" y="2720" class="st1" width="160" height="160"/>
<rect x="480" y="2720" class="st0" width="160" height="160"/>
<rect x="640" y="2720" class="st1" width="160" height="160"/>
<rect x="800" y="2720" class="st0" width="160" height="160"/>
<rect x="960" y="2720" class="st1" width="160" height="160"/>
<rect x="1120" y="2720" class="st0" width="160" height="160"/>
<rect x="1280" y="2720" class="st1" width="160" height="160"/>
<rect x="1440" y="2720" class="st0" width="160" height="160"/>
<rect x="1600" y="2720" class="st1" width="160" height="160"/>
<rect x="1760" y="2720" class="st0" width="160" height="160"/>
<rect x="1920" y="2720" class="st1" width="160" height="160"/>
<rect x="2080" y="2720" class="st0" width="160" height="160"/>
<rect x="2240" y="2720" class="st1" width="160" height="160"/>
<rect x="2400" y="2720" class="st0" width="160" height="160"/>
<rect x="2560" y="2720" class="st1" width="160" height="160"/>
<rect x="2720" y="2720" class="st0" width="160" height="160"/>
<rect x="2880" y="2720" class="st1" width="160" height="160"/>
<rect x="3040" y="2720" class="st0" width="160" height="160"/>
<rect x="3200" y="2720" class="st1" width="160" height="160"/>
<rect x="3360" y="2720" class="st0" width="160" height="160"/>
<rect x="3520" y="2720" class="st1" width="160" height="160"/>
<rect x="3680" y="2720" class="st0" width="160" height="160"/>
<rect x="3840" y="2720" class="st1" width="160" height="160"/>
<rect x="0" y="2880" class="st0" width="160" height="160"/>
<rect x="160" y="2880" class="st1" width="160" height="160"/>
<rect x="320" y="2880" class="st0" width="160" height="160"/>
<rect x="480" y="2880" class="st1" width="160" height="160"/>
<rect x="640" y="2880" class="st0" width="160" height="160"/>
<rect x="800" y="2880" class="st1" width="160" height="160"/>
<rect x="960" y="2880" class="st0" width="160" height="160"/>
<rect x="1120" y="2880" class="st1" width="160" height="160"/>
<rect x="1280" y="2880" class="st0" width="160" height="160"/>
<rect x="1440" y="2880" class="st1" width="160" height="160"/>
<rect x="1600" y="2880" class="st0" width="160" height="160"/>
<rect x="1760" y="2880" class="st1" width="160" height="160"/>
<rect x="1920" y="2880" class="st0" width="160" height="160"/>
<rect x="2080" y="2880" class="st1" width="160" height="160"/>
<rect x="2240" y="2880" class="st0" width="160" height="160"/>
<rect x="2400" y="2880" class="st1" width="160" height="160"/>
<rect x="2560" y="2880" class="st0" width="160" height="160"/>
<rect x="2720" y="2880" class="st1" width="160" height="160"/>
<rect x="2880" y="2880" class="st0" width="160" height="160"/>
<rect x="3040" y="2880" class="st1" width="160" height="160"/>
<rect x="3200" y="2880" class="st0" width="160" height="160"/>
<rect x="3360" y="2880" class="st1" width="160" height="160"/>
<rect x="3520" y="2880" class="st0" width="160" height="160"/>
<rect x="3680" y="2880" class="st1" width="160" height="160"/>
<rect x="3840" y="2880" class="st0" width="160" height="160"/>
<rect x="0" y="3040" class="st1" width="160" height="160"/>
<rect x="160" y="3040" class="st0" width="160" height="160"/>
<rect x="320" y="3040" class="st1" width="160" height="160"/>
<rect x="480" y="3040" class="st0" width="160" height="160"/>
<rect x="640" y="3040" class="st1" width="160" height="160"/>
<rect x="800" y="3040" class="st0" width="160" height="160"/>
<rect x="960" y="3040" class="st1" width="160" height="160"/>
<rect x="1120" y="3040" class="st0" width="160" height="160"/>
<rect x="1280" y="3040" class="st1" width="160" height="160"/>
<rect x="1440" y="3040" class="st0" width="160" height="160"/>
<rect x="1600" y="3040" class="st1" width="160" height="160"/>
<rect x="1760" y="3040" class="st0" width="160" height="160"/>
<rect x="1920" y="3040" class="st1" width="160" height="160"/>
<rect x="2080" y="3040" class="st0" width="160" height="160"/>
<rect x="2240" y="3040" class="st1" width="160" height="160"/>
<rect x="2400" y="3040" class="st0" width="160" height="160"/>
<rect x="2560" y="3040" class="st1" width="160" height="160"/>
<rect x="2720" y="3040" class="st0" width="160" height="160"/>
<rect x="2880" y="3040" class="st1" width="160" height="160"/>
<rect x="3040" y="3040" class="st0" width="160" height="160"/>
<rect x="3200" y="3040" class="st1" width="160" height="160"/>
<rect x="3360" y="3040" class="st0" width="160" height="160"/>
<rect x="3520" y="3040" class="st1" width="160" height="160"/>
<rect x="3680" y="3040" class="st0" width="160" height="160"/>
<rect x="3840" y="3040" class="st1" width="160" height="160"/>
<rect y="3200" class="st0" width="160" height="160"/>
<rect x="160" y="3200" class="st1" width="160" height="160"/>
<rect x="320" y="3200" class="st0" width="160" height="160"/>
<rect x="480" y="3200" class="st1" width="160" height="160"/>
<rect x="640" y="3200" class="st0" width="160" height="160"/>
<rect x="800" y="3200" class="st1" width="160" height="160"/>
<rect x="960" y="3200" class="st0" width="160" height="160"/>
<rect x="1120" y="3200" class="st1" width="160" height="160"/>
<rect x="1280" y="3200" class="st0" width="160" height="160"/>
<rect x="1440" y="3200" class="st1" width="160" height="160"/>
<rect x="1600" y="3200" class="st0" width="160" height="160"/>
<rect x="1760" y="3200" class="st1" width="160" height="160"/>
<rect x="1920" y="3200" class="st0" width="160" height="160"/>
<rect x="2080" y="3200" class="st1" width="160" height="160"/>
<rect x="2240" y="3200" class="st0" width="160" height="160"/>
<rect x="2400" y="3200" class="st1" width="160" height="160"/>
<rect x="2560" y="3200" class="st0" width="160" height="160"/>
<rect x="2720" y="3200" class="st1" width="160" height="160"/>
<rect x="2880" y="3200" class="st0" width="160" height="160"/>
<rect x="3040" y="3200" class="st1" width="160" height="160"/>
<rect x="3200" y="3200" class="st0" width="160" height="160"/>
<rect x="3360" y="3200" class="st1" width="160" height="160"/>
<rect x="3520" y="3200" class="st0" width="160" height="160"/>
<rect x="3680" y="3200" class="st1" width="160" height="160"/>
<rect x="3840" y="3200" class="st0" width="160" height="160"/>
<rect y="3360" class="st1" width="160" height="160"/>
<rect x="160" y="3360" class="st0" width="160" height="160"/>
<rect x="320" y="3360" class="st1" width="160" height="160"/>
<rect x="480" y="3360" class="st0" width="160" height="160"/>
<rect x="640" y="3360" class="st1" width="160" height="160"/>
<rect x="800" y="3360" class="st0" width="160" height="160"/>
<rect x="960" y="3360" class="st1" width="160" height="160"/>
<rect x="1120" y="3360" class="st0" width="160" height="160"/>
<rect x="1280" y="3360" class="st1" width="160" height="160"/>
<rect x="1440" y="3360" class="st0" width="160" height="160"/>
<rect x="1600" y="3360" class="st1" width="160" height="160"/>
<rect x="1760" y="3360" class="st0" width="160" height="160"/>
<rect x="1920" y="3360" class="st1" width="160" height="160"/>
<rect x="2080" y="3360" class="st0" width="160" height="160"/>
<rect x="2240" y="3360" class="st1" width="160" height="160"/>
<rect x="2400" y="3360" class="st0" width="160" height="160"/>
<rect x="2560" y="3360" class="st1" width="160" height="160"/>
<rect x="2720" y="3360" class="st0" width="160" height="160"/>
<rect x="2880" y="3360" class="st1" width="160" height="160"/>
<rect x="3040" y="3360" class="st0" width="160" height="160"/>
<rect x="3200" y="3360" class="st1" width="160" height="160"/>
<rect x="3360" y="3360" class="st0" width="160" height="160"/>
<rect x="3520" y="3360" class="st1" width="160" height="160"/>
<rect x="3680" y="3360" class="st0" width="160" height="160"/>
<rect x="3840" y="3360" class="st1" width="160" height="160"/>
<rect x="0" y="3520" class="st0" width="160" height="160"/>
<rect x="160" y="3520" class="st1" width="160" height="160"/>
<rect x="320" y="3520" class="st0" width="160" height="160"/>
<rect x="480" y="3520" class="st1" width="160" height="160"/>
<rect x="640" y="3520" class="st0" width="160" height="160"/>
<rect x="800" y="3520" class="st1" width="160" height="160"/>
<rect x="960" y="3520" class="st0" width="160" height="160"/>
<rect x="1120" y="3520" class="st1" width="160" height="160"/>
<rect x="1280" y="3520" class="st0" width="160" height="160"/>
<rect x="1440" y="3520" class="st1" width="160" height="160"/>
<rect x="1600" y="3520" class="st0" width="160" height="160"/>
<rect x="1760" y="3520" class="st1" width="160" height="160"/>
<rect x="1920" y="3520" class="st0" width="160" height="160"/>
<rect x="2080" y="3520" class="st1" width="160" height="160"/>
<rect x="2240" y="3520" class="st0" width="160" height="160"/>
<rect x="2400" y="3520" class="st1" width="160" height="160"/>
<rect x="2560" y="3520" class="st0" width="160" height="160"/>
<rect x="2720" y="3520" class="st1" width="160" height="160"/>
<rect x="2880" y="3520" class="st0" width="160" height="160"/>
<rect x="3040" y="3520" class="st1" width="160" height="160"/>
<rect x="3200" y="3520" class="st0" width="160" height="160"/>
<rect x="3360" y="3520" class="st1" width="160" height="160"/>
<rect x="3520" y="3520" class="st0" width="160" height="160"/>
<rect x="3680" y="3520" class="st1" width="160" height="160"/>
<rect x="3840" y="3520" class="st0" width="160" height="160"/>
<rect x="0" y="3680" class="st1" width="160" height="160"/>
<rect x="160" y="3680" class="st0" width="160" height="160"/>
<rect x="320" y="3680" class="st1" width="160" height="160"/>
<rect x="480" y="3680" class="st0" width="160" height="160"/>
<rect x="640" y="3680" class="st1" width="160" height="160"/>
<rect x="800" y="3680" class="st0" width="160" height="160"/>
<rect x="960" y="3680" class="st1" width="160" height="160"/>
<rect x="1120" y="3680" class="st0" width="160" height="160"/>
<rect x="1280" y="3680" class="st1" width="160" height="160"/>
<rect x="1440" y="3680" class="st0" width="160" height="160"/>
<rect x="1600" y="3680" class="st1" width="160" height="160"/>
<rect x="1760" y="3680" class="st0" width="160" height="160"/>
<rect x="1920" y="3680" class="st1" width="160" height="160"/>
<rect x="2080" y="3680" class="st0" width="160" height="160"/>
<rect x="2240" y="3680" class="st1" width="160" height="160"/>
<rect x="2400" y="3680" class="st0" width="160" height="160"/>
<rect x="2560" y="3680" class="st1" width="160" height="160"/>
<rect x="2720" y="3680" class="st0" width="160" height="160"/>
<rect x="2880" y="3680" class="st1" width="160" height="160"/>
<rect x="3040" y="3680" class="st0" width="160" height="160"/>
<rect x="3200" y="3680" class="st1" width="160" height="160"/>
<rect x="3360" y="3680" class="st0" width="160" height="160"/>
<rect x="3520" y="3680" class="st1" width="160" height="160"/>
<rect x="3680" y="3680" class="st0" width="160" height="160"/>
<rect x="3840" y="3680" class="st1" width="160" height="160"/>
<rect x="0" y="3840" class="st0" width="160" height="160"/>
<rect x="160" y="3840" class="st1" width="160" height="160"/>
<rect x="320" y="3840" class="st0" width="160" height="160"/>
<rect x="480" y="3840" class="st1" width="160" height="160"/>
<rect x="640" y="3840" class="st0" width="160" height="160"/>
<rect x="800" y="3840" class="st1" width="160" height="160"/>
<rect x="960" y="3840" class="st0" width="160" height="160"/>
<rect x="1120" y="3840" class="st1" width="160" height="160"/>
<rect x="1280" y="3840" class="st0" width="160" height="160"/>
<rect x="1440" y="3840" class="st1" width="160" height="160"/>
<rect x="1600" y="3840" class="st0" width="160" height="160"/>
<rect x="1760" y="3840" class="st1" width="160" height="160"/>
<rect x="1920" y="3840" class="st0" width="160" height="160"/>
<rect x="2080" y="3840" class="st1" width="160" height="160"/>
<rect x="2240" y="3840" class="st0" width="160" height="160"/>
<rect x="2400" y="3840" class="st1" width="160" height="160"/>
<rect x="2560" y="3840" class="st0" width="160" height="160"/>
<rect x="2720" y="3840" class="st1" width="160" height="160"/>
<rect x="2880" y="3840" class="st0" width="160" height="160"/>
<rect x="3040" y="3840" class="st1" width="160" height="160"/>
<rect x="3200" y="3840" class="st0" width="160" height="160"/>
<rect x="3360" y="3840" class="st1" width="160" height="160"/>
<rect x="3520" y="3840" class="st0" width="160" height="160"/>
<rect x="3680" y="3840" class="st1" width="160" height="160"/>
<rect x="3840" y="3840" class="st0" width="160" height="160"/>
<g>
</g>
<g>
</g>
<g>
</g>
<g>
</g>
<g>
</g>
<g>
</g>
</svg>
